<mxfile host="app.diagrams.net" agent="Mozilla/5.0 (Macintosh; Intel Mac OS X 10_15_7) AppleWebKit/537.36 (KHTML, like Gecko) Chrome/131.0.0.0 Safari/537.36" version="25.0.1">
  <diagram name="Page-1" id="FWR-QQghNwjICr1OxFnu">
    <mxGraphModel>
      <root>
        <mxCell id="0" />
        <mxCell id="1" parent="0" />
        <mxCell id="2" value="PARTS" style="shape=table;startSize=25;container=1;collapsible=0;childLayout=tableLayout;fixedRows=1;rowLines=1;fontStyle=1;align=center;resizeLast=1;" vertex="1" parent="1">
          <mxGeometry x="20" y="221" width="108" height="112" as="geometry" />
        </mxCell>
        <mxCell id="3" style="shape=tableRow;horizontal=0;startSize=0;swimlaneHead=0;swimlaneBody=0;fillColor=none;collapsible=0;dropTarget=0;points=[[0,0.5],[1,0.5]];portConstraint=eastwest;top=0;left=0;right=0;bottom=0;" vertex="1" parent="2">
          <mxGeometry y="22" width="105" height="22" as="geometry" />
        </mxCell>
        <mxCell id="4" value="key" style="shape=partialRectangle;connectable=0;fillColor=none;top=0;left=0;bottom=0;right=0;align=left;spacingLeft=2;overflow=hidden;fontSize=11;" vertex="1" parent="3">
          <mxGeometry width="66" height="22" as="geometry" />
        </mxCell>
        <mxCell id="5" value="int" style="shape=partialRectangle;connectable=0;fillColor=none;top=0;left=0;bottom=0;right=0;align=left;spacingLeft=2;overflow=hidden;fontSize=11;" vertex="1" parent="3">
          <mxGeometry width="42" height="22" as="geometry" />
        </mxCell>
        <mxCell id="6" style="shape=tableRow;horizontal=0;startSize=0;swimlaneHead=0;swimlaneBody=0;fillColor=none;collapsible=0;dropTarget=0;points=[[0,0.5],[1,0.5]];portConstraint=eastwest;top=0;left=0;right=0;bottom=0;" vertex="1" parent="2">
          <mxGeometry y="44" width="105" height="22" as="geometry" />
        </mxCell>
        <mxCell id="7" value="name" style="shape=partialRectangle;connectable=0;fillColor=none;top=0;left=0;bottom=0;right=0;align=left;spacingLeft=2;overflow=hidden;fontSize=11;" vertex="1" parent="6">
          <mxGeometry width="66" height="22" as="geometry" />
        </mxCell>
        <mxCell id="8" value="varchar" style="shape=partialRectangle;connectable=0;fillColor=none;top=0;left=0;bottom=0;right=0;align=left;spacingLeft=2;overflow=hidden;fontSize=11;" vertex="1" parent="6">
          <mxGeometry width="42" height="22" as="geometry" />
        </mxCell>
        <mxCell id="9" style="shape=tableRow;horizontal=0;startSize=0;swimlaneHead=0;swimlaneBody=0;fillColor=none;collapsible=0;dropTarget=0;points=[[0,0.5],[1,0.5]];portConstraint=eastwest;top=0;left=0;right=0;bottom=0;" vertex="1" parent="2">
          <mxGeometry y="65" width="105" height="22" as="geometry" />
        </mxCell>
        <mxCell id="10" value="description" style="shape=partialRectangle;connectable=0;fillColor=none;top=0;left=0;bottom=0;right=0;align=left;spacingLeft=2;overflow=hidden;fontSize=11;" vertex="1" parent="9">
          <mxGeometry width="66" height="22" as="geometry" />
        </mxCell>
        <mxCell id="11" value="varchar" style="shape=partialRectangle;connectable=0;fillColor=none;top=0;left=0;bottom=0;right=0;align=left;spacingLeft=2;overflow=hidden;fontSize=11;" vertex="1" parent="9">
          <mxGeometry width="42" height="22" as="geometry" />
        </mxCell>
        <mxCell id="12" style="shape=tableRow;horizontal=0;startSize=0;swimlaneHead=0;swimlaneBody=0;fillColor=none;collapsible=0;dropTarget=0;points=[[0,0.5],[1,0.5]];portConstraint=eastwest;top=0;left=0;right=0;bottom=0;" vertex="1" parent="2">
          <mxGeometry y="87" width="105" height="22" as="geometry" />
        </mxCell>
        <mxCell id="13" value="price" style="shape=partialRectangle;connectable=0;fillColor=none;top=0;left=0;bottom=0;right=0;align=left;spacingLeft=2;overflow=hidden;fontSize=11;" vertex="1" parent="12">
          <mxGeometry width="66" height="22" as="geometry" />
        </mxCell>
        <mxCell id="14" value="int" style="shape=partialRectangle;connectable=0;fillColor=none;top=0;left=0;bottom=0;right=0;align=left;spacingLeft=2;overflow=hidden;fontSize=11;" vertex="1" parent="12">
          <mxGeometry width="42" height="22" as="geometry" />
        </mxCell>
        <mxCell id="15" value="CHAPTERS" style="shape=table;startSize=25;container=1;collapsible=0;childLayout=tableLayout;fixedRows=1;rowLines=1;fontStyle=1;align=center;resizeLast=1;" vertex="1" parent="1">
          <mxGeometry x="61" y="444" width="126" height="112" as="geometry" />
        </mxCell>
        <mxCell id="16" style="shape=tableRow;horizontal=0;startSize=0;swimlaneHead=0;swimlaneBody=0;fillColor=none;collapsible=0;dropTarget=0;points=[[0,0.5],[1,0.5]];portConstraint=eastwest;top=0;left=0;right=0;bottom=0;" vertex="1" parent="15">
          <mxGeometry y="22" width="124" height="22" as="geometry" />
        </mxCell>
        <mxCell id="17" value="key" style="shape=partialRectangle;connectable=0;fillColor=none;top=0;left=0;bottom=0;right=0;align=left;spacingLeft=2;overflow=hidden;fontSize=11;" vertex="1" parent="16">
          <mxGeometry width="84" height="22" as="geometry" />
        </mxCell>
        <mxCell id="18" value="int" style="shape=partialRectangle;connectable=0;fillColor=none;top=0;left=0;bottom=0;right=0;align=left;spacingLeft=2;overflow=hidden;fontSize=11;" vertex="1" parent="16">
          <mxGeometry width="42" height="22" as="geometry" />
        </mxCell>
        <mxCell id="19" style="shape=tableRow;horizontal=0;startSize=0;swimlaneHead=0;swimlaneBody=0;fillColor=none;collapsible=0;dropTarget=0;points=[[0,0.5],[1,0.5]];portConstraint=eastwest;top=0;left=0;right=0;bottom=0;" vertex="1" parent="15">
          <mxGeometry y="44" width="124" height="22" as="geometry" />
        </mxCell>
        <mxCell id="20" value="title" style="shape=partialRectangle;connectable=0;fillColor=none;top=0;left=0;bottom=0;right=0;align=left;spacingLeft=2;overflow=hidden;fontSize=11;" vertex="1" parent="19">
          <mxGeometry width="84" height="22" as="geometry" />
        </mxCell>
        <mxCell id="21" value="varchar" style="shape=partialRectangle;connectable=0;fillColor=none;top=0;left=0;bottom=0;right=0;align=left;spacingLeft=2;overflow=hidden;fontSize=11;" vertex="1" parent="19">
          <mxGeometry width="42" height="22" as="geometry" />
        </mxCell>
        <mxCell id="22" style="shape=tableRow;horizontal=0;startSize=0;swimlaneHead=0;swimlaneBody=0;fillColor=none;collapsible=0;dropTarget=0;points=[[0,0.5],[1,0.5]];portConstraint=eastwest;top=0;left=0;right=0;bottom=0;" vertex="1" parent="15">
          <mxGeometry y="65" width="124" height="22" as="geometry" />
        </mxCell>
        <mxCell id="23" value="number" style="shape=partialRectangle;connectable=0;fillColor=none;top=0;left=0;bottom=0;right=0;align=left;spacingLeft=2;overflow=hidden;fontSize=11;" vertex="1" parent="22">
          <mxGeometry width="84" height="22" as="geometry" />
        </mxCell>
        <mxCell id="24" value="int" style="shape=partialRectangle;connectable=0;fillColor=none;top=0;left=0;bottom=0;right=0;align=left;spacingLeft=2;overflow=hidden;fontSize=11;" vertex="1" parent="22">
          <mxGeometry width="42" height="22" as="geometry" />
        </mxCell>
        <mxCell id="25" style="shape=tableRow;horizontal=0;startSize=0;swimlaneHead=0;swimlaneBody=0;fillColor=none;collapsible=0;dropTarget=0;points=[[0,0.5],[1,0.5]];portConstraint=eastwest;top=0;left=0;right=0;bottom=0;" vertex="1" parent="15">
          <mxGeometry y="87" width="124" height="22" as="geometry" />
        </mxCell>
        <mxCell id="26" value="date_published" style="shape=partialRectangle;connectable=0;fillColor=none;top=0;left=0;bottom=0;right=0;align=left;spacingLeft=2;overflow=hidden;fontSize=11;" vertex="1" parent="25">
          <mxGeometry width="84" height="22" as="geometry" />
        </mxCell>
        <mxCell id="27" value="date" style="shape=partialRectangle;connectable=0;fillColor=none;top=0;left=0;bottom=0;right=0;align=left;spacingLeft=2;overflow=hidden;fontSize=11;" vertex="1" parent="25">
          <mxGeometry width="42" height="22" as="geometry" />
        </mxCell>
        <mxCell id="28" value="BOOK" style="shape=table;startSize=25;container=1;collapsible=0;childLayout=tableLayout;fixedRows=1;rowLines=1;fontStyle=1;align=center;resizeLast=1;" vertex="1" parent="1">
          <mxGeometry x="274" y="210" width="126" height="134" as="geometry" />
        </mxCell>
        <mxCell id="29" style="shape=tableRow;horizontal=0;startSize=0;swimlaneHead=0;swimlaneBody=0;fillColor=none;collapsible=0;dropTarget=0;points=[[0,0.5],[1,0.5]];portConstraint=eastwest;top=0;left=0;right=0;bottom=0;" vertex="1" parent="28">
          <mxGeometry y="22" width="123" height="22" as="geometry" />
        </mxCell>
        <mxCell id="30" value="key" style="shape=partialRectangle;connectable=0;fillColor=none;top=0;left=0;bottom=0;right=0;align=left;spacingLeft=2;overflow=hidden;fontSize=11;" vertex="1" parent="29">
          <mxGeometry width="84" height="22" as="geometry" />
        </mxCell>
        <mxCell id="31" value="int" style="shape=partialRectangle;connectable=0;fillColor=none;top=0;left=0;bottom=0;right=0;align=left;spacingLeft=2;overflow=hidden;fontSize=11;" vertex="1" parent="29">
          <mxGeometry width="42" height="22" as="geometry" />
        </mxCell>
        <mxCell id="32" style="shape=tableRow;horizontal=0;startSize=0;swimlaneHead=0;swimlaneBody=0;fillColor=none;collapsible=0;dropTarget=0;points=[[0,0.5],[1,0.5]];portConstraint=eastwest;top=0;left=0;right=0;bottom=0;" vertex="1" parent="28">
          <mxGeometry y="44" width="123" height="22" as="geometry" />
        </mxCell>
        <mxCell id="33" value="title" style="shape=partialRectangle;connectable=0;fillColor=none;top=0;left=0;bottom=0;right=0;align=left;spacingLeft=2;overflow=hidden;fontSize=11;" vertex="1" parent="32">
          <mxGeometry width="84" height="22" as="geometry" />
        </mxCell>
        <mxCell id="34" value="varchar" style="shape=partialRectangle;connectable=0;fillColor=none;top=0;left=0;bottom=0;right=0;align=left;spacingLeft=2;overflow=hidden;fontSize=11;" vertex="1" parent="32">
          <mxGeometry width="42" height="22" as="geometry" />
        </mxCell>
        <mxCell id="35" style="shape=tableRow;horizontal=0;startSize=0;swimlaneHead=0;swimlaneBody=0;fillColor=none;collapsible=0;dropTarget=0;points=[[0,0.5],[1,0.5]];portConstraint=eastwest;top=0;left=0;right=0;bottom=0;" vertex="1" parent="28">
          <mxGeometry y="65" width="123" height="22" as="geometry" />
        </mxCell>
        <mxCell id="36" value="author" style="shape=partialRectangle;connectable=0;fillColor=none;top=0;left=0;bottom=0;right=0;align=left;spacingLeft=2;overflow=hidden;fontSize=11;" vertex="1" parent="35">
          <mxGeometry width="84" height="22" as="geometry" />
        </mxCell>
        <mxCell id="37" value="varchar" style="shape=partialRectangle;connectable=0;fillColor=none;top=0;left=0;bottom=0;right=0;align=left;spacingLeft=2;overflow=hidden;fontSize=11;" vertex="1" parent="35">
          <mxGeometry width="42" height="22" as="geometry" />
        </mxCell>
        <mxCell id="38" style="shape=tableRow;horizontal=0;startSize=0;swimlaneHead=0;swimlaneBody=0;fillColor=none;collapsible=0;dropTarget=0;points=[[0,0.5],[1,0.5]];portConstraint=eastwest;top=0;left=0;right=0;bottom=0;" vertex="1" parent="28">
          <mxGeometry y="87" width="123" height="22" as="geometry" />
        </mxCell>
        <mxCell id="39" value="genre" style="shape=partialRectangle;connectable=0;fillColor=none;top=0;left=0;bottom=0;right=0;align=left;spacingLeft=2;overflow=hidden;fontSize=11;" vertex="1" parent="38">
          <mxGeometry width="84" height="22" as="geometry" />
        </mxCell>
        <mxCell id="40" value="varchar" style="shape=partialRectangle;connectable=0;fillColor=none;top=0;left=0;bottom=0;right=0;align=left;spacingLeft=2;overflow=hidden;fontSize=11;" vertex="1" parent="38">
          <mxGeometry width="42" height="22" as="geometry" />
        </mxCell>
        <mxCell id="41" style="shape=tableRow;horizontal=0;startSize=0;swimlaneHead=0;swimlaneBody=0;fillColor=none;collapsible=0;dropTarget=0;points=[[0,0.5],[1,0.5]];portConstraint=eastwest;top=0;left=0;right=0;bottom=0;" vertex="1" parent="28">
          <mxGeometry y="109" width="123" height="22" as="geometry" />
        </mxCell>
        <mxCell id="42" value="year_published" style="shape=partialRectangle;connectable=0;fillColor=none;top=0;left=0;bottom=0;right=0;align=left;spacingLeft=2;overflow=hidden;fontSize=11;" vertex="1" parent="41">
          <mxGeometry width="84" height="22" as="geometry" />
        </mxCell>
        <mxCell id="43" value="int" style="shape=partialRectangle;connectable=0;fillColor=none;top=0;left=0;bottom=0;right=0;align=left;spacingLeft=2;overflow=hidden;fontSize=11;" vertex="1" parent="41">
          <mxGeometry width="42" height="22" as="geometry" />
        </mxCell>
        <mxCell id="44" value="PUBLISHER" style="shape=table;startSize=25;container=1;collapsible=0;childLayout=tableLayout;fixedRows=1;rowLines=1;fontStyle=1;align=center;resizeLast=1;" vertex="1" parent="1">
          <mxGeometry x="336" y="455" width="100" height="90" as="geometry" />
        </mxCell>
        <mxCell id="45" style="shape=tableRow;horizontal=0;startSize=0;swimlaneHead=0;swimlaneBody=0;fillColor=none;collapsible=0;dropTarget=0;points=[[0,0.5],[1,0.5]];portConstraint=eastwest;top=0;left=0;right=0;bottom=0;" vertex="1" parent="44">
          <mxGeometry y="22" width="100" height="22" as="geometry" />
        </mxCell>
        <mxCell id="46" value="key" style="shape=partialRectangle;connectable=0;fillColor=none;top=0;left=0;bottom=0;right=0;align=left;spacingLeft=2;overflow=hidden;fontSize=11;" vertex="1" parent="45">
          <mxGeometry width="48" height="22" as="geometry" />
        </mxCell>
        <mxCell id="47" value="int" style="shape=partialRectangle;connectable=0;fillColor=none;top=0;left=0;bottom=0;right=0;align=left;spacingLeft=2;overflow=hidden;fontSize=11;" vertex="1" parent="45">
          <mxGeometry width="52" height="22" as="geometry" />
        </mxCell>
        <mxCell id="48" style="shape=tableRow;horizontal=0;startSize=0;swimlaneHead=0;swimlaneBody=0;fillColor=none;collapsible=0;dropTarget=0;points=[[0,0.5],[1,0.5]];portConstraint=eastwest;top=0;left=0;right=0;bottom=0;" vertex="1" parent="44">
          <mxGeometry y="43" width="100" height="22" as="geometry" />
        </mxCell>
        <mxCell id="49" value="name" style="shape=partialRectangle;connectable=0;fillColor=none;top=0;left=0;bottom=0;right=0;align=left;spacingLeft=2;overflow=hidden;fontSize=11;" vertex="1" parent="48">
          <mxGeometry width="48" height="22" as="geometry" />
        </mxCell>
        <mxCell id="50" value="varchar" style="shape=partialRectangle;connectable=0;fillColor=none;top=0;left=0;bottom=0;right=0;align=left;spacingLeft=2;overflow=hidden;fontSize=11;" vertex="1" parent="48">
          <mxGeometry width="52" height="22" as="geometry" />
        </mxCell>
        <mxCell id="51" style="shape=tableRow;horizontal=0;startSize=0;swimlaneHead=0;swimlaneBody=0;fillColor=none;collapsible=0;dropTarget=0;points=[[0,0.5],[1,0.5]];portConstraint=eastwest;top=0;left=0;right=0;bottom=0;" vertex="1" parent="44">
          <mxGeometry y="65" width="100" height="22" as="geometry" />
        </mxCell>
        <mxCell id="52" value="location" style="shape=partialRectangle;connectable=0;fillColor=none;top=0;left=0;bottom=0;right=0;align=left;spacingLeft=2;overflow=hidden;fontSize=11;" vertex="1" parent="51">
          <mxGeometry width="48" height="22" as="geometry" />
        </mxCell>
        <mxCell id="53" value="varchar" style="shape=partialRectangle;connectable=0;fillColor=none;top=0;left=0;bottom=0;right=0;align=left;spacingLeft=2;overflow=hidden;fontSize=11;" vertex="1" parent="51">
          <mxGeometry width="52" height="22" as="geometry" />
        </mxCell>
        <mxCell id="54" value="AUTHOR" style="shape=table;startSize=25;container=1;collapsible=0;childLayout=tableLayout;fixedRows=1;rowLines=1;fontStyle=1;align=center;resizeLast=1;" vertex="1" parent="1">
          <mxGeometry x="286" y="20" width="100" height="90" as="geometry" />
        </mxCell>
        <mxCell id="55" style="shape=tableRow;horizontal=0;startSize=0;swimlaneHead=0;swimlaneBody=0;fillColor=none;collapsible=0;dropTarget=0;points=[[0,0.5],[1,0.5]];portConstraint=eastwest;top=0;left=0;right=0;bottom=0;" vertex="1" parent="54">
          <mxGeometry y="22" width="100" height="22" as="geometry" />
        </mxCell>
        <mxCell id="56" value="key" style="shape=partialRectangle;connectable=0;fillColor=none;top=0;left=0;bottom=0;right=0;align=left;spacingLeft=2;overflow=hidden;fontSize=11;" vertex="1" parent="55">
          <mxGeometry width="24" height="22" as="geometry" />
        </mxCell>
        <mxCell id="57" value="int" style="shape=partialRectangle;connectable=0;fillColor=none;top=0;left=0;bottom=0;right=0;align=left;spacingLeft=2;overflow=hidden;fontSize=11;" vertex="1" parent="55">
          <mxGeometry width="76" height="22" as="geometry" />
        </mxCell>
        <mxCell id="58" style="shape=tableRow;horizontal=0;startSize=0;swimlaneHead=0;swimlaneBody=0;fillColor=none;collapsible=0;dropTarget=0;points=[[0,0.5],[1,0.5]];portConstraint=eastwest;top=0;left=0;right=0;bottom=0;" vertex="1" parent="54">
          <mxGeometry y="43" width="100" height="22" as="geometry" />
        </mxCell>
        <mxCell id="59" value="name" style="shape=partialRectangle;connectable=0;fillColor=none;top=0;left=0;bottom=0;right=0;align=left;spacingLeft=2;overflow=hidden;fontSize=11;" vertex="1" parent="58">
          <mxGeometry width="24" height="22" as="geometry" />
        </mxCell>
        <mxCell id="60" value="varchar" style="shape=partialRectangle;connectable=0;fillColor=none;top=0;left=0;bottom=0;right=0;align=left;spacingLeft=2;overflow=hidden;fontSize=11;" vertex="1" parent="58">
          <mxGeometry width="76" height="22" as="geometry" />
        </mxCell>
        <mxCell id="61" style="shape=tableRow;horizontal=0;startSize=0;swimlaneHead=0;swimlaneBody=0;fillColor=none;collapsible=0;dropTarget=0;points=[[0,0.5],[1,0.5]];portConstraint=eastwest;top=0;left=0;right=0;bottom=0;" vertex="1" parent="54">
          <mxGeometry y="65" width="100" height="22" as="geometry" />
        </mxCell>
        <mxCell id="62" value="bio" style="shape=partialRectangle;connectable=0;fillColor=none;top=0;left=0;bottom=0;right=0;align=left;spacingLeft=2;overflow=hidden;fontSize=11;" vertex="1" parent="61">
          <mxGeometry width="24" height="22" as="geometry" />
        </mxCell>
        <mxCell id="63" value="varchar" style="shape=partialRectangle;connectable=0;fillColor=none;top=0;left=0;bottom=0;right=0;align=left;spacingLeft=2;overflow=hidden;fontSize=11;" vertex="1" parent="61">
          <mxGeometry width="76" height="22" as="geometry" />
        </mxCell>
        <mxCell id="64" value="BOOK_AUTHOR" style="shape=table;startSize=25;container=1;collapsible=0;childLayout=tableLayout;fixedRows=1;rowLines=1;fontStyle=1;align=center;resizeLast=1;" vertex="1" parent="1">
          <mxGeometry x="486" y="20" width="111" height="90" as="geometry" />
        </mxCell>
        <mxCell id="65" style="shape=tableRow;horizontal=0;startSize=0;swimlaneHead=0;swimlaneBody=0;fillColor=none;collapsible=0;dropTarget=0;points=[[0,0.5],[1,0.5]];portConstraint=eastwest;top=0;left=0;right=0;bottom=0;" vertex="1" parent="64">
          <mxGeometry y="22" width="111" height="22" as="geometry" />
        </mxCell>
        <mxCell id="66" value="key" style="shape=partialRectangle;connectable=0;fillColor=none;top=0;left=0;bottom=0;right=0;align=left;spacingLeft=2;overflow=hidden;fontSize=11;" vertex="1" parent="65">
          <mxGeometry width="54" height="22" as="geometry" />
        </mxCell>
        <mxCell id="67" value="int" style="shape=partialRectangle;connectable=0;fillColor=none;top=0;left=0;bottom=0;right=0;align=left;spacingLeft=2;overflow=hidden;fontSize=11;" vertex="1" parent="65">
          <mxGeometry width="57" height="22" as="geometry" />
        </mxCell>
        <mxCell id="68" style="shape=tableRow;horizontal=0;startSize=0;swimlaneHead=0;swimlaneBody=0;fillColor=none;collapsible=0;dropTarget=0;points=[[0,0.5],[1,0.5]];portConstraint=eastwest;top=0;left=0;right=0;bottom=0;" vertex="1" parent="64">
          <mxGeometry y="43" width="111" height="22" as="geometry" />
        </mxCell>
        <mxCell id="69" value="book_id" style="shape=partialRectangle;connectable=0;fillColor=none;top=0;left=0;bottom=0;right=0;align=left;spacingLeft=2;overflow=hidden;fontSize=11;" vertex="1" parent="68">
          <mxGeometry width="54" height="22" as="geometry" />
        </mxCell>
        <mxCell id="70" value="int" style="shape=partialRectangle;connectable=0;fillColor=none;top=0;left=0;bottom=0;right=0;align=left;spacingLeft=2;overflow=hidden;fontSize=11;" vertex="1" parent="68">
          <mxGeometry width="57" height="22" as="geometry" />
        </mxCell>
        <mxCell id="71" style="shape=tableRow;horizontal=0;startSize=0;swimlaneHead=0;swimlaneBody=0;fillColor=none;collapsible=0;dropTarget=0;points=[[0,0.5],[1,0.5]];portConstraint=eastwest;top=0;left=0;right=0;bottom=0;" vertex="1" parent="64">
          <mxGeometry y="65" width="111" height="22" as="geometry" />
        </mxCell>
        <mxCell id="72" value="author_id" style="shape=partialRectangle;connectable=0;fillColor=none;top=0;left=0;bottom=0;right=0;align=left;spacingLeft=2;overflow=hidden;fontSize=11;" vertex="1" parent="71">
          <mxGeometry width="54" height="22" as="geometry" />
        </mxCell>
        <mxCell id="73" value="int" style="shape=partialRectangle;connectable=0;fillColor=none;top=0;left=0;bottom=0;right=0;align=left;spacingLeft=2;overflow=hidden;fontSize=11;" vertex="1" parent="71">
          <mxGeometry width="57" height="22" as="geometry" />
        </mxCell>
        <mxCell id="74" value="Contain" style="curved=1;startArrow=ERmandOne;startSize=10;;endArrow=ERmandOne;endSize=10;;exitX=0.49;exitY=1;entryX=0.28;entryY=0;" edge="1" parent="1" source="2" target="15">
          <mxGeometry relative="1" as="geometry">
            <Array as="points">
              <mxPoint x="73" y="394" />
            </Array>
          </mxGeometry>
        </mxCell>
        <mxCell id="75" value="Published_by" style="curved=1;startArrow=ERmandOne;startSize=10;;endArrow=ERzeroToOne;endSize=10;;exitX=0.72;exitY=1;entryX=0.5;entryY=0;" edge="1" parent="1" source="28" target="44">
          <mxGeometry relative="1" as="geometry">
            <Array as="points">
              <mxPoint x="386" y="394" />
            </Array>
          </mxGeometry>
        </mxCell>
        <mxCell id="76" value="Belongs_to" style="curved=1;startArrow=ERmandOne;startSize=10;;endArrow=ERzeroToOne;endSize=10;;exitX=0.01;exitY=1;entryX=0.94;entryY=0;" edge="1" parent="1" source="28" target="15">
          <mxGeometry relative="1" as="geometry">
            <Array as="points">
              <mxPoint x="230" y="394" />
            </Array>
          </mxGeometry>
        </mxCell>
        <mxCell id="77" value="Writes" style="curved=1;startArrow=ERmandOne;startSize=10;;endArrow=ERzeroToOne;endSize=10;;exitX=0.5;exitY=1;entryX=0.49;entryY=0;" edge="1" parent="1" source="54" target="28">
          <mxGeometry relative="1" as="geometry">
            <Array as="points" />
          </mxGeometry>
        </mxCell>
      </root>
    </mxGraphModel>
  </diagram>
</mxfile>
